<svg height="300" viewBox="0 0 512 512" width="300" xmlns="http://www.w3.org/2000/svg" version="1.1" xmlns:xlink="http://www.w3.org/1999/xlink" xmlns:svgjs="http://svgjs.dev/svgjs"><g width="100%" height="100%" transform="matrix(1,0,0,1,0,0)"><path d="m454.976562 94.539062c0 34.46875-27.941406 62.410157-62.40625 62.410157-34.46875 0-62.410156-27.941407-62.410156-62.410157 0-34.464843 27.941406-62.40625 62.410156-62.40625 34.464844 0 62.40625 27.941407 62.40625 62.40625zm0 0" fill="#219d9c" fill-opacity="1" data-original-color="#000000ff" stroke="none" stroke-opacity="1"/><path d="m284.550781 175.378906-29.621093-44.417968v-75.789063c0-30.242187-24.390626-55.171875-55.160157-55.171875h-144.597656c-30.613281 0-55.171875 24.78125-55.171875 55.171875v88.359375c0 30.320312 24.46875 55.167969 55.171875 55.167969h216.898437c11.949219 0 19.121094-13.359375 12.480469-23.320313zm-157.503906-32.910156h-47.359375c-8.078125 0-15.027344-6.214844-15.402344-14.285156-.394531-8.617188 6.457032-15.714844 14.984375-15.714844h48.203125c8.511719 0 15.378906 7.097656 14.980469 15.710938-.371094 8.074218-7.324219 14.289062-15.40625 14.289062zm48.625-56.238281h-95.976563c-8.074218 0-15.019531-6.199219-15.40625-14.261719-.414062-8.617188 6.445313-15.738281 14.980469-15.738281h95.976563c8.082031 0 15.035156 6.214843 15.40625 14.289062.398437 8.613281-6.46875 15.710938-14.980469 15.710938zm0 0" fill="#219d9c" fill-opacity="1" data-original-color="#000000ff" stroke="none" stroke-opacity="1"/><path d="m116.484375 372.152344c-64.605469.222656-116.484375 53.558594-116.484375 118.164062v3.289063c0 10.160156 8.234375 18.394531 18.394531 18.394531h197.003907c10.160156 0 18.394531-8.234375 18.394531-18.394531v-4.558594c0-64.699219-52.558594-117.121094-117.308594-116.894531zm0 0" fill="#219d9c" fill-opacity="1" data-original-color="#000000ff" stroke="none" stroke-opacity="1"/><path d="m190.507812 298.542969c0 40.652343-32.953124 73.609375-73.609374 73.609375-40.652344 0-73.609376-32.957032-73.609376-73.609375 0-40.652344 32.957032-73.609375 73.609376-73.609375 40.65625 0 73.609374 32.957031 73.609374 73.609375zm0 0" fill="#219d9c" fill-opacity="1" data-original-color="#000000ff" stroke="none" stroke-opacity="1"/><path d="m487.230469 241h-189.332031c5.582031-47.328125 45.832031-84.050781 94.671874-84.050781 48.828126 0 89.078126 36.722656 94.660157 84.050781zm0 0" fill="#219d9c" fill-opacity="1" data-original-color="#000000ff" stroke="none" stroke-opacity="1"/><path d="m497 272c8.285156 0 15 6.714844 15 15v177.871094c0 8.519531-7.109375 15.390625-15.730469 14.980468-8.058593-.382812-14.269531-7.332031-14.269531-15.410156v-16.710937h-224.128906c-10.082032-34.320313-32.371094-63.480469-61.839844-82.390625 15.257812-18.050782 24.480469-41.371094 24.480469-66.800782 0-9.167968-1.203125-18.058593-3.453125-26.539062zm0 0" fill="#219d9c" fill-opacity="1" data-original-color="#000000ff" stroke="none" stroke-opacity="1"/></g></svg>