<svg id="Artboard_30" height="512" viewBox="0 0 64 64" width="512" xmlns="http://www.w3.org/2000/svg" data-name="Artboard 30"><path d="m47 14h2v2h-2z"/><path d="m39 14h2v2h-2z"/><path d="m21 8h4v-4a1 1 0 0 0 -1-1h-3.184a2.966 2.966 0 0 1 .184 1z"/><path d="m60 10h-40a1 1 0 0 1 -1-1v-5a1 1 0 0 0 -1-1h-14a1 1 0 0 0 -1 1v46a1 1 0 0 0 1 1h15.586l-2.672-2.672a3.121 3.121 0 0 1 2.207-5.328h2.879v-20a3 3 0 0 1 3-3h14a3 3 0 0 1 3 3v20h2.879a3.121 3.121 0 0 1 2.207 5.328l-2.672 2.672h15.586a1 1 0 0 0 1-1v-39a1 1 0 0 0 -1-1zm-17 7a1 1 0 0 1 -1 1h-4a1 1 0 0 1 -1-1v-4a1 1 0 0 1 1-1h4a1 1 0 0 1 1 1zm8 0a1 1 0 0 1 -1 1h-4a1 1 0 0 1 -1-1v-4a1 1 0 0 1 1-1h4a1 1 0 0 1 1 1zm8 0a1 1 0 0 1 -1 1h-4a1 1 0 0 1 -1-1v-4a1 1 0 0 1 1-1h4a1 1 0 0 1 1 1z"/><path d="m55 14h2v2h-2z"/><path d="m39 22h-14a1 1 0 0 0 -1 1v21a1 1 0 0 1 -1 1h-3.879a1.121 1.121 0 0 0 -.793 1.914l13.672 13.672 13.672-13.672a1.121 1.121 0 0 0 -.793-1.914h-3.879a1 1 0 0 1 -1-1v-21a1 1 0 0 0 -1-1z"/><path d="m27 8h4v-4a1 1 0 0 0 -1-1h-3.184a2.966 2.966 0 0 1 .184 1z"/></svg>