<svg xmlns="http://www.w3.org/2000/svg" id="Layer_1" data-name="Layer 1" viewBox="0 0 48 48" width="300" height="300" version="1.1" xmlns:xlink="http://www.w3.org/1999/xlink" xmlns:svgjs="http://svgjs.dev/svgjs"><g width="100%" height="100%" transform="matrix(1,0,0,1,0,0)"><rect x="39" y="9" width="6" height="9" rx="2" fill="#219d9c" fill-opacity="1" data-original-color="#000000ff" stroke="none" stroke-opacity="1"/><rect x="39" y="19.5" width="6" height="9" rx="2" fill="#219d9c" fill-opacity="1" data-original-color="#000000ff" stroke="none" stroke-opacity="1"/><rect x="39" y="30" width="6" height="9" rx="2" fill="#219d9c" fill-opacity="1" data-original-color="#000000ff" stroke="none" stroke-opacity="1"/><path d="M10,15a.99974.99974,0,0,1-1-1,2,2,0,0,0-4,0,1,1,0,0,1-2,0,4,4,0,0,1,8,0A.99974.99974,0,0,1,10,15Z" fill="#219d9c" fill-opacity="1" data-original-color="#000000ff" stroke="none" stroke-opacity="1"/><path d="M10,23a.99974.99974,0,0,1-1-1,2,2,0,0,0-4,0,1,1,0,0,1-2,0,4,4,0,0,1,8,0A.99974.99974,0,0,1,10,23Z" fill="#219d9c" fill-opacity="1" data-original-color="#000000ff" stroke="none" stroke-opacity="1"/><path d="M10,31a.99974.99974,0,0,1-1-1,2,2,0,0,0-4,0,1,1,0,0,1-2,0,4,4,0,0,1,8,0A.99974.99974,0,0,1,10,31Z" fill="#219d9c" fill-opacity="1" data-original-color="#000000ff" stroke="none" stroke-opacity="1"/><path d="M10,39a.99974.99974,0,0,1-1-1,2,2,0,0,0-4,0,1,1,0,0,1-2,0,4,4,0,0,1,8,0A.99974.99974,0,0,1,10,39Z" fill="#219d9c" fill-opacity="1" data-original-color="#000000ff" stroke="none" stroke-opacity="1"/><path d="M22.7998,14.15918,25.106,11.46973a1.013,1.013,0,0,1,.97168-.32618,1.00026,1.00026,0,0,1,.74853.70118l.66651,2.31445h1.67724C28.93262,11.62354,27.16431,9.63867,25,9.63867s-3.93262,1.98487-4.16992,4.52051Z" fill="#219d9c" fill-opacity="1" data-original-color="#000000ff" stroke="none" stroke-opacity="1"/><path d="M23.13477,21.20233,25,22.2666l1.86523-1.06427a.99666.99666,0,0,1-.16552-1.82928,4.92547,4.92547,0,0,0,2.3435-3.21387h-2.303a.9999.9999,0,0,1-.96093-.72363l-.36182-1.25586L24.019,15.81055a1.00252,1.00252,0,0,1-.75927.34863h-2.303a4.92547,4.92547,0,0,0,2.3435,3.21387.99666.99666,0,0,1-.16552,1.82928Z" fill="#219d9c" fill-opacity="1" data-original-color="#000000ff" stroke="none" stroke-opacity="1"/><path d="M18.91309,27.63867h.94384V25.877a1,1,0,0,1,2,0v1.76172h6.28614V25.877a1,1,0,0,1,2,0v1.76172h.94384a.7403.7403,0,0,0,.73926-.73926,5.24825,5.24825,0,0,0-2.66357-4.70605l-3.667,2.09277a.99746.99746,0,0,1-.99122,0l-3.667-2.09277a5.24825,5.24825,0,0,0-2.66357,4.70605A.7403.7403,0,0,0,18.91309,27.63867Z" fill="#219d9c" fill-opacity="1" data-original-color="#000000ff" stroke="none" stroke-opacity="1"/><path d="M39,3H8A2.00583,2.00583,0,0,0,6,5V9.1A4.717,4.717,0,0,1,7,9a5.00181,5.00181,0,0,1,5,5,2,2,0,0,1-4,0,1,1,0,0,0-2,0v3.1A4.717,4.717,0,0,1,7,17a5.00181,5.00181,0,0,1,5,5,2,2,0,0,1-4,0,1,1,0,0,0-2,0v3.1A4.717,4.717,0,0,1,7,25a5.00181,5.00181,0,0,1,5,5,2,2,0,0,1-4,0,1,1,0,0,0-2,0v3.1A4.717,4.717,0,0,1,7,33a5.00181,5.00181,0,0,1,5,5,2,2,0,0,1-4,0,1,1,0,0,0-2,0v5a2.00583,2.00583,0,0,0,2,2H39a2.00583,2.00583,0,0,0,2-2V5A2.00583,2.00583,0,0,0,39,3ZM20.80005,19.94a7.57476,7.57476,0,0,1-2-4.75v-.05c-.01-.14-.02-.28-.02-.41,0-3.91,2.79-7.09,6.22-7.09s6.22,3.18,6.22,7.09c0,.13-.01.27-.02.41v.05a7.5734,7.5734,0,0,1-2,4.75,7.35712,7.35712,0,0,1,4.63013,6.96,2.74419,2.74419,0,0,1-2.74,2.74H18.91016a2.74425,2.74425,0,0,1-2.74024-2.74A7.35712,7.35712,0,0,1,20.80005,19.94ZM34,39H16a1,1,0,0,1,0-2H34a1,1,0,0,1,0,2Zm0-4H16a1,1,0,0,1,0-2H34a1,1,0,0,1,0,2Z" fill="#219d9c" fill-opacity="1" data-original-color="#000000ff" stroke="none" stroke-opacity="1"/></g></svg>