<svg id="Layer_1" enable-background="new 0 0 53 53" height="300" viewBox="0 0 53 53" width="300" xmlns="http://www.w3.org/2000/svg" version="1.1" xmlns:xlink="http://www.w3.org/1999/xlink" xmlns:svgjs="http://svgjs.dev/svgjs"><g width="100%" height="100%" transform="matrix(1,0,0,1,0,0)"><g><g><g><path d="m30.1919975 5.9679608h-2.3351707c-.4237347 0-.7909756-.2918963-.8851128-.7062058-.3201714-1.431205-1.6007442-2.5046518-3.1355705-2.5046518-1.5348244 0-2.8153973 1.0734468-3.1355133 2.5046518-.0941944.4143095-.4614353.7062058-.8757458.7062058h-2.344593c-.4990234 0-.9039078.404942-.9039078.903964v3.2862029c0 .4990797.4048843.903964.9039078.903964h12.7117062c.4990788 0 .9039631-.4048843.9039631-.903964v-3.2862028c-.0000001-.499022-.4048844-.9039641-.9039632-.9039641zm-6.3181534 1.158217c-.5461483 0-.9793091-.4331603-.9793091-.9698839 0-.5460911.4331608-.9792514.9793091-.9792514.5367241 0 .9698277.4331603.9698277.9792514 0 .5367236-.4331036.9698839-.9698277.9698839z" fill="#219d9c" fill-opacity="1" data-original-color="#000000ff" stroke="none" stroke-opacity="1"/></g></g><g><path d="m17.5804749 31.5802994h-4.2714844c-.2001953 0-.3623047.1621094-.3623047.3613281v4.2724609c0 .1992188.1621094.3613281.3623047.3613281h4.2714844c.2001953 0 .3623047-.1621094.3623047-.3613281v-4.2724609c-.0000001-.1992187-.1621094-.3613281-.3623047-.3613281zm-1.0751954 2.3847656-1.0849609 1.0849609c-.0976563.0976563-.2255859.1464844-.3535156.1464844s-.2558594-.0488281-.3535156-.1464844l-.4375-.4375c-.1953125-.1953125-.1953125-.5117188 0-.7070313s.5117188-.1953125.7070313 0l.0839844.0839844.7314453-.7314453c.1953125-.1953125.5117188-.1953125.7070313 0s.1953123.5117188-.0000002.7070313z" fill="#219d9c" fill-opacity="1" data-original-color="#000000ff" stroke="none" stroke-opacity="1"/><path d="m35.6161194 7.9230723h-3.5700073v2.2299809c0 1.0200195-.8299561 1.8598633-1.8499756 1.8598633h-12.710022c-1.0199585 0-1.8499756-.8398438-1.8499756-1.8598633v-2.2299809h-3.5100098c-2.7199707 0-4.9199829 2.2099614-4.9199829 4.9299321v32.4799805c0 2.7099609 2.2000122 4.9099121 4.9199829 4.9099121h23.4899902c.8300171 0 1.6000366-.1999512 2.2900391-.5600586-.6199951-.7397461-.9899902-1.6999512-.9899902-2.7397461v-13.1000976c-.7800293-.2900391-1.3300171-1.0400391-1.3300171-1.9101563 0-1.1298828.9099731-2.0400391 2.039978-2.0400391h2.9199829v-17.0397948c.0000001-2.7199707-2.2099609-4.9299322-4.9299926-4.9299322zm-16.6699829 37.3398443c0 .75-.6099854 1.3601074-1.3699951 1.3601074h-4.2700195c-.75 0-1.3599854-.6101074-1.3599854-1.3601074v-4.2700196c0-.75.6099854-1.3598633 1.3599854-1.3598633h4.2700195c.7600098 0 1.3699951.6098633 1.3699951 1.3598633zm0-9.0500489c0 .75-.6099854 1.3601074-1.3699951 1.3601074h-4.2700195c-.75 0-1.3599854-.6101074-1.3599854-1.3601074v-4.2697754c0-.75.6099854-1.3601074 1.3599854-1.3601074h4.2700195c.7600098 0 1.3699951.6101074 1.3699951 1.3601074zm-1.8400269-15.6398925c0-3.6101074 2.9400024-6.5500488 6.5500488-6.5500488 3.6199951 0 6.5599976 2.9399414 6.5599976 6.5500488 0 3.6201172-2.9400024 6.5600586-6.5599976 6.5600586-3.6100463 0-6.5500488-2.9399415-6.5500488-6.5600586zm12.920044 25.1799316h-6.9000244c-.2700195 0-.5-.2199707-.5-.5s.2299805-.5.5-.5h6.9000244c.2699585 0 .5.2199707.5.5s-.2300415.5-.5.5zm2.6699829-4.25h-9.5700073c-.2700195 0-.5-.2199707-.5-.5 0-.2700195.2299805-.5.5-.5h9.5700073c.2800293 0 .5.2299805.5.5 0 .2800293-.2199707.5-.5.5zm-10.0700073-5.3000488c0-.2797852.2299805-.5.5-.5h6.9000244c.2699585 0 .5.2202148.5.5 0 .2700195-.2300415.5-.5.5h-6.9000244c-.2700196 0-.5-.2299805-.5-.5zm10.0700073-3.75h-9.5700073c-.2700195 0-.5-.2199707-.5-.5 0-.2700195.2299805-.5.5-.5h9.5700073c.2800293 0 .5.2299805.5.5 0 .2800293-.2199707.5-.5.5z" fill="#219d9c" fill-opacity="1" data-original-color="#000000ff" stroke="none" stroke-opacity="1"/><path d="m29.2152405 20.5754166c0-3.0625-2.4921875-5.5546875-5.5556641-5.5546875-3.0625 0-5.5546875 2.4921875-5.5546875 5.5546875s2.4921875 5.5546875 5.5546875 5.5546875c3.0634766 0 5.5556641-2.4921875 5.5556641-5.5546875zm-6.0556641 2.446289v-1.512207l-1.4267578.8237305c-.0791016.0458984-.1650391.0673828-.25.0673828-.171875 0-.3408203-.0898438-.4326172-.25-.1386719-.2392578-.0566406-.5449219.1826172-.6826172l1.4279175-.8242188-1.31073-.7568359c-.2392578-.1376953-.3212891-.4433594-.1826172-.6826172.1376953-.2382813.4443359-.3203125.6826172-.1826172l1.3095703.7561035v-1.6486816c0-.2763672.2236328-.5.5-.5s.5.2236328.5.5v1.6491699l1.3105469-.7565918c.2382813-.1396484.5449219-.0566406.6826172.1826172.1386719.2392578.0566406.5449219-.1826172.6826172l-1.31073.7568359 1.4279175.8242188c.2392578.1376953.3212891.4433594.1826172.6826172-.0917969.1601563-.2607422.25-.4326172.25-.0849609 0-.1708984-.0214844-.25-.0673828l-1.4277344-.8242188v1.5126953c0 .2763672-.2236328.5-.5.5s-.5-.2236328-.5-.5z" fill="#219d9c" fill-opacity="1" data-original-color="#000000ff" stroke="none" stroke-opacity="1"/><path d="m17.5804749 40.6320572h-4.2714844c-.2001953 0-.3623047.1621094-.3623047.3613281v4.2714844c0 .2001953.1621094.3623047.3623047.3623047h4.2714844c.2001953 0 .3623047-.1621094.3623047-.3623047v-4.2714844c-.0000001-.1992187-.1621094-.3613281-.3623047-.3613281zm-1.0751954 2.3085937-1.0849609 1.0849609c-.0976563.0976563-.2255859.1464844-.3535156.1464844s-.2558594-.0488281-.3535156-.1464844l-.4375-.4375c-.1953125-.1953125-.1953125-.5117188 0-.7070313s.5117188-.1953125.7070313 0l.0839844.0839844.7314453-.7314453c.1953125-.1953125.5117188-.1953125.7070313 0s.1953123.5117188-.0000002.7070313z" fill="#219d9c" fill-opacity="1" data-original-color="#000000ff" stroke="none" stroke-opacity="1"/></g><g><path d="m45.7938538 31.9295826c0 .58008-.4700317 1.040041-1.0400391 1.040041h-7.1299438c-.5700073 0-1.0400391-.4599609-1.0400391-1.040041 0-.5698242.4700317-1.0400391 1.0400391-1.0400391h7.1299438c.5700073 0 1.0400391.4702149 1.0400391 1.0400391z" fill="#219d9c" fill-opacity="1" data-original-color="#000000ff" stroke="none" stroke-opacity="1"/></g><g><path d="m40.9994202 39.6398697c1.5170898.5632324 2.8370972.1655273 3.4767456-.1103516v-5.5566406h-6.5599976v5.9897461c.7189331-.5043945 1.7577515-.8132324 3.083252-.3227539z" fill="#219d9c" fill-opacity="1" data-original-color="#000000ff" stroke="none" stroke-opacity="1"/><path d="m40.6517639 40.5773697c-1.5919189-.5874023-2.4487305.3574219-2.7355957.7717285v5.5939941c0 1.8198242 1.4599609 3.2797852 3.2799683 3.2797852 1.8099976 0 3.2800293-1.4599609 3.2800293-3.2797852v-6.3430176c-.8718262.3010255-2.2577515.5566407-3.8244019-.022705z" fill="#219d9c" fill-opacity="1" data-original-color="#000000ff" stroke="none" stroke-opacity="1"/></g></g></g></svg>