<svg id="Layer_1" enable-background="new 0 0 512 512" viewBox="0 0 512 512" xmlns="http://www.w3.org/2000/svg" width="300" height="300" version="1.1" xmlns:xlink="http://www.w3.org/1999/xlink" xmlns:svgjs="http://svgjs.dev/svgjs"><g width="100%" height="100%" transform="matrix(1,0,0,1,0,0)"><path d="m279.785 257.805c0 56.682 45.95 102.632 102.632 102.632s102.632-45.95 102.632-102.632-45.95-102.632-102.632-102.632-102.632 45.95-102.632 102.632zm177.364 0c0 41.274-33.459 74.733-74.733 74.733-41.273 0-74.732-33.459-74.732-74.733s33.459-74.733 74.732-74.733c41.274 0 74.733 33.459 74.733 74.733zm-334.375 175.263c0-19.4 15.803-35.204 35.204-35.204h224.438v-22.428c-64.966 0-117.631-52.665-117.631-117.631s52.665-117.632 117.631-117.632v-111.469c0-11.128-9.08-20.204-20.204-20.204h-315.056c-11.128 0-20.204 9.077-20.204 20.204v421.204c0 29.475 21.56 53.592 47.912 53.592 27.584 0 46.812-25.24 47.864-51.313.216-6.322.046-12.782.046-19.119zm164.241-62.953h46.881c4.142 0 7.5 3.358 7.5 7.5s-3.358 7.5-7.5 7.5h-46.881c-4.142 0-7.5-3.358-7.5-7.5s3.358-7.5 7.5-7.5zm-15.617-53.307c0 4.142-3.358 7.5-7.5 7.5h-56.79c-4.142 0-7.5-3.358-7.5-7.5s3.358-7.5 7.5-7.5h56.79c4.142 0 7.5 3.358 7.5 7.5zm-140.851-53.308c-4.142 0-7.5-3.358-7.5-7.5s3.358-7.5 7.5-7.5h118.521c4.142 0 7.5 3.358 7.5 7.5s-3.358 7.5-7.5 7.5zm133.35-60.808h-50.855c-4.142 0-7.5-3.358-7.5-7.5s3.358-7.5 7.5-7.5h50.855c4.142 0 7.5 3.358 7.5 7.5.001 4.142-3.357 7.5-7.5 7.5zm69.999-60.808h-30.643c-4.142 0-7.5-3.358-7.5-7.5s3.358-7.5 7.5-7.5h30.643c4.142 0 7.5 3.358 7.5 7.5s-3.358 7.5-7.5 7.5zm-60.318-75.808h60.318c4.142 0 7.5 3.358 7.5 7.5s-3.358 7.5-7.5 7.5h-60.318c-4.142 0-7.5-3.358-7.5-7.5s3.358-7.5 7.5-7.5zm-.232 68.308c0 4.142-3.358 7.5-7.5 7.5h-124.18c-4.142 0-7.5-3.358-7.5-7.5s3.358-7.5 7.5-7.5h124.18c4.142 0 7.5 3.358 7.5 7.5zm-197.873-68.308h150.626c4.142 0 7.5 3.358 7.5 7.5s-3.358 7.5-7.5 7.5h-150.626c-4.142 0-7.5-3.358-7.5-7.5s3.358-7.5 7.5-7.5zm0 60.808h18.617c4.142 0 7.5 3.358 7.5 7.5s-3.358 7.5-7.5 7.5h-18.617c-4.142 0-7.5-3.358-7.5-7.5s3.358-7.5 7.5-7.5zm0 60.808h85.936c4.142 0 7.5 3.358 7.5 7.5s-3.358 7.5-7.5 7.5h-85.936c-4.142 0-7.5-3.358-7.5-7.5s3.358-7.5 7.5-7.5zm-.001 60.808h23.026c4.142 0 7.5 3.358 7.5 7.5s-3.358 7.5-7.5 7.5h-23.026c-4.142 0-7.5-3.358-7.5-7.5s3.358-7.5 7.5-7.5zm0 60.808h93.651c4.142 0 7.5 3.358 7.5 7.5s-3.358 7.5-7.5 7.5h-93.651c-4.142 0-7.5-3.358-7.5-7.5s3.358-7.5 7.5-7.5zm0 60.807h159.801c4.142 0 7.5 3.358 7.5 7.5s-3.358 7.5-7.5 7.5h-159.801c-4.142 0-7.5-3.358-7.5-7.5s3.358-7.5 7.5-7.5zm29.536 75.808h-29.536c-4.142 0-7.5-3.358-7.5-7.5s3.358-7.5 7.5-7.5h29.536c4.142 0 7.5 3.358 7.5 7.5s-3.359 7.5-7.5 7.5zm277.409-245.532c4.142 0 7.5 3.358 7.5 7.5v34.243c5.838 2.799 9.87 8.764 9.87 15.671 0 9.593-7.776 17.37-17.37 17.37-2.026 0-3.971-.348-5.778-.986l-21.875 21.875c-2.928 2.928-7.677 2.928-10.605 0s-2.928-7.677 0-10.605l21.875-21.875c-.637-1.808-.985-3.752-.985-5.778 0-6.907 4.031-12.872 9.87-15.671v-34.243c-.002-4.143 3.355-7.501 7.498-7.501zm80.36 232.677v16.84c0 29.476-21.561 53.592-47.912 53.592h-300.76c14.751-13.003 23.668-32.932 23.668-53.592v-16.84c0-11.128 9.077-20.204 20.204-20.204h239.438 45.156c11.13 0 20.206 9.076 20.206 20.204z" fill="#219d9c" fill-opacity="1" data-original-color="#000000ff" stroke="none" stroke-opacity="1"/></g></svg>