<svg height="300" viewBox="0 0 32 32" width="300" xmlns="http://www.w3.org/2000/svg" version="1.1" xmlns:xlink="http://www.w3.org/1999/xlink" xmlns:svgjs="http://svgjs.dev/svgjs"><g width="100%" height="100%" transform="matrix(1,0,0,1,0,0)"><g id="Layer_2" data-name="Layer 2"><path d="m4 9h24a3 3 0 0 0 0-6h-24a3 3 0 0 0 0 6z" fill="#ffffff" fill-opacity="1" data-original-color="#000000ff" stroke="none" stroke-opacity="1"/><path d="m28 13h-24a3 3 0 0 0 0 6h24a3 3 0 0 0 0-6z" fill="#ffffff" fill-opacity="1" data-original-color="#000000ff" stroke="none" stroke-opacity="1"/><path d="m28 23h-24a3 3 0 0 0 0 6h24a3 3 0 0 0 0-6z" fill="#ffffff" fill-opacity="1" data-original-color="#000000ff" stroke="none" stroke-opacity="1"/></g></g></svg>