<?xml version="1.0" encoding="utf-8"?>
<!-- Generator: Adobe Illustrator 27.5.0, SVG Export Plug-In . SVG Version: 6.00 Build 0)  -->
<svg version="1.1" id="Layer_1" xmlns="http://www.w3.org/2000/svg" xmlns:xlink="http://www.w3.org/1999/xlink" x="0px" y="0px"
	 viewBox="0 0 4000 4000" style="enable-background:new 0 0 4000 4000;" xml:space="preserve">
<rect style="fill:#FFFFFF;" width="4000" height="4000"/>
<g>
	<path style="fill:#101010;" d="M1957.668,485.56c121.699-12.97,250.429,3.023,379.726,55.621
		c317.214,129.043,532.062,474.7,507.36,816.265s-287.051,652.712-619.531,734.768c-332.48,82.056-709.468-71.302-890.251-362.152
		C1001.64,1193.785,1407.906,544.149,1957.668,485.56z"/>
	<path style="fill:#101010;" d="M1660.624,2114.174c37.684-5.936,89.561,18.335,125.967,29.288
		c191.119,57.534,365.001,50.375,550.949-25.41c55.213,20.462,112.442,34.96,167.405,56.603
		c149.681,58.897,297.097,156.798,417.1,263.221c314.82,279.22,488.883,663.821,513.056,1080.282l-1021.177,0.556L564.9,3518.367
		c9.515-193.287,45.152-373.161,128.078-549.239C886.513,2558.172,1237.922,2266.941,1660.624,2114.174z"/>
</g>
</svg>
