<svg height="300" viewBox="-19 -24 618.66669 618" width="300" xmlns="http://www.w3.org/2000/svg" version="1.1" xmlns:xlink="http://www.w3.org/1999/xlink" xmlns:svgjs="http://svgjs.dev/svgjs"><g width="100%" height="100%" transform="matrix(1,0,0,1,0,0)"><path d="m10 570h280c5.523438 0 10-4.476562 10-10v-70h-260v-20h260v-95.210938c-25.328125-20.867187-40-51.972656-40-84.789062v-90c0-27.613281-22.386719-50-50-50s-50 22.386719-50 50v41c25.152344 5.132812 42.328125 28.476562 39.746094 54.015625-2.578125 25.535156-24.078125 44.976563-49.746094 44.976563s-47.167969-19.441407-49.746094-44.976563c-2.582031-25.539063 14.59375-48.882813 39.746094-54.015625v-41c0-38.660156 31.335938-70 70-70s70 31.339844 70 70v90c-.003906 20.550781 7.054688 40.480469 20 56.441406v-326.441406c0-5.523438-4.476562-10-10-10h-280c-5.523438 0-10 4.476562-10 10v50h260v20h-260v470c0 5.523438 4.476562 10 10 10zm130-50h20v20h-20zm70-130h40v20h-40zm-40 0h20v20h-20zm0 40h80v20h-80zm-100-380h-20v-20h20zm60 0h-20v-20h20zm-110 70c0-5.523438 4.476562-10 10-10h40v20h-30v30h-20zm0 0" fill="#219d9c" fill-opacity="1" data-original-color="#000000ff" stroke="none" stroke-opacity="1"/><path d="m180 290c0 16.566406-13.433594 30-30 30s-30-13.433594-30-30 13.433594-30 30-30 30 13.433594 30 30zm0 0" fill="#219d9c" fill-opacity="1" data-original-color="#000000ff" stroke="none" stroke-opacity="1"/><path d="m570 10h-30v-10h-30c-5.523438 0-10 4.476562-10 10v20c0 5.523438 4.476562 10 10 10h30v-10h20v140c0 49.707031-40.292969 90-90 90s-90-40.292969-90-90v-140h20v10h30c5.523438 0 10-4.476562 10-10v-20c0-5.523438-4.476562-10-10-10h-30v10h-30c-5.523438 0-10 4.476562-10 10v150c.074219 56.835938 43.402344 104.277344 100 109.492188v10.507812c.039062 38.164062-24.023438 72.191406-60.019531 84.882812-35.996094 12.6875-76.074219 1.269532-99.980469-28.480468v28.5c32.855469 27.101562 78.402344 32.804687 116.921875 14.632812 38.527344-18.167968 63.097656-56.941406 63.078125-99.535156v-10.507812c56.597656-5.214844 99.925781-52.65625 100-109.492188v-150c0-5.523438-4.476562-10-10-10zm0 0" fill="#219d9c" fill-opacity="1" data-original-color="#000000ff" stroke="none" stroke-opacity="1"/></g></svg>